<svg width="371" height="371" fill="none" xmlns="http://www.w3.org/2000/svg"><path fill-rule="evenodd" clip-rule="evenodd" d="M287.612 129.497c-12.479-3.974-25.489-4.908-38.421-6.303 4.121-.909 8.582-2.124 12.779-2.59 3.862-.423 6.16 1.168 9.795 2.434 6.487 2.265 13.735 5.016 19.375 7.647a115.027 115.027 0 0 0-3.528-1.188Zm-17.773 4.966c-13.691-2.558-27.707-3.114-41.379-5.788 3.39-1.038 5.311-1.942 8.913-1.599 5.355.508 10.774 1.606 16.006 2.77 7.594 1.692 15.256 3.516 22.654 5.915-2.055-.478-4.12-.91-6.194-1.298Zm.659 2.672c-.937.378-4.221-.905-5.282-1.135 1.022.195 4.683 1.377 5.282 1.135Zm-27.259-.281a477.753 477.753 0 0 0-32.288-.952c1.927-.72 3.767-1.622 5.644-2.464 5.133-2.3 6.025-1.935 11.149-.422 6.609 1.952 13.38 3.062 20.156 4.192a139.722 139.722 0 0 0-4.662-.354h.001Zm-12.503 6.177c-14.79 1.122-29.379 2.914-44.143 4.568 3.152-1.273 6.182-2.894 9.194-4.458 4.648-2.413 8.216-2.073 13.398-2.074 5.503-.004 10.908.643 16.379 1.265 1.35.155 6.636.587 5.172.699Zm-22.788-11.238c7.896-7.668 16.955-14.813 26.236-20.785 5.89-3.792 12.296-8.073 19.218-4.786-11.448.476-26.404 10.859-33.18 19.758-.325.421-.822.713-1.161 1.128-1.272 1.543.113 1.712-.752 2.662-.101.111-4.726 2-4.112 1.747-3.138 1.295-6.349 2.381-9.491 3.658a137.997 137.997 0 0 1 3.243-3.382h-.001Zm44.048-18.371c-7.772 6.5-16.204 9.959-25.566 13.221 8.55-5.498 17.122-9.995 26.519-13.933-.318.236-.636.473-.952.712h-.001Zm9.672 2.229c1.62-.519 2.343-.384 2.703 1.539-4.186-.158-6.174.415-10.13 1.376a57.49 57.49 0 0 1 7.427-2.915Zm5.137 1.05c-.291-.528-.416-1.537-.619-2.052 3.108-.05 5.747.607 8.388 2.236-.874.008-7.553.779-7.769-.185v.001Zm-126.031 72.151c22.721-2.807 44.512-3.54 67.331-1.316-17.191 1.508-34.455 4.962-51.372 8.316-13.582 2.693-27.355 4.148-40.976 6.582 2.524-2.628 4.884-5.41 7.455-7.999 4.466-4.496 11.157-4.783 17.562-5.583Zm78.115 6.69c4.102-.42 8.194-.929 12.274-1.527 4.435-.654 11.509-3.578 15.972-2.698-24.365 7.233-50.693 10.567-75.74 14.644-10.411 1.694-21.01 4.172-31.095 7.314-14.561 4.535-30.985 4.513-44.882 10.884 4.25-4.454 8.905-10.825 13.747-14.447 3.519-2.634 9.356-2.854 13.543-3.407 6.894-.909 13.821-1.616 20.732-2.359 25.16-2.712 50.279-5.772 75.449-8.404Zm-127.41 24.126a188.917 188.917 0 0 0-5.968 6.893c3.51-16.459 3.352-33.817 5.329-50.527 1.118-9.448 2.167-19.002 3.67-28.388 1.33-8.287 1.683-19.579 6.127-26.739 3.316 3.08 5.767 6.349 5.108 10.826-.847 5.757-3.327 11.291-4.481 17.003-1.295 6.418-2.173 12.952-2.974 19.449-1.233 9.994-1.52 20.16-.992 30.208.142 2.825.324 5.647.544 8.467.097 1.231.734 3.327.463 4.477-.664 2.829-4.688 5.963-6.827 8.331Zm24.502-68.532c1.948-9.249 3.135-19.995 7.186-28.665 2.249-4.817 4.412-6.533 7.771-1.328 2.398 3.713-1.369 11.865-2.556 16.533-3.367 13.245-5.145 26.836-7.373 40.304-.582 3.529-.754 7.018-1.13 10.552-.313 2.928-.232 2.754-1.919 4.96-1.085 1.424-2.796 2.635-4.104 3.884-3.429 3.278-6.906 6.512-10.299 9.826 5.163-18.471 8.484-37.319 12.424-56.066Zm254.021 42.009c-3.129-4.162-7.097-7.914-11.157-11.129-5.623-4.46-12.509-7.067-18.125-11.356-4.723-3.61-8.624-8.414-13.451-12.069-7.668-5.803-15.559-10.628-24.538-14.115 11.435 3.902 22.402 8.6 31.563 16.697.774.686 7.484 9.276 8.872 8.456.95-.555-3.076-6.773-3.915-8.221-6.19-10.648-18.893-17.461-28.931-24.299-11.337-7.723-23.717-12.055-36.633-16.327 11.735.649 21.621 3.662 31.452 10.265 4.835 3.246 9.309 7.038 14.293 10.051 4.418 2.673 8.662 5.136 12.475 8.722 4.271 4.02 7.702 8.399 10.536 13.534 1.065 1.931 6.267 13.624 6.407 6.197.069-3.66-4.553-8.876-6.424-11.52-3.155-4.456-6.814-8.469-10.644-12.349-6.515-6.594-12.733-13.438-20.466-18.64-4.398-2.961-9.004-5.307-14.036-6.998-3.886-1.307-7.875-2.246-11.953-2.708-3.872-.438-4.245-.391-7.326-2.392-2.648-1.72-4.908-3.561-7.871-4.789-3.019-1.251-5.589-1.431-7.835-3.138-2.65-2.02-3.678-4.388-7.097-5.652-3.144-1.163-6.361-.907-9.641-.645-10.847.864-21.86 3.615-30.835 10.031-7.931 5.671-13.323 14.722-17.157 23.547-2.117 4.869-.68 4.687-6.365 7.486-5.977 2.943-11.919 5.836-17.734 9.12 9.587-11.917 17.922-25.111 28.433-36.28 5.621-5.965 11.133-12.028 16.752-17.99 1.659-1.756 14.761-14.411 7.402-13.962-1.702.103-4.261 2.377-5.825 3.124-3.121 1.498-6.22 2.825-9.105 4.783-5.001 3.393-9.083 7.615-13.172 12.007-10.593 11.374-20.141 23.54-25.029 38.475-1.158 3.535-1.581 7.519-3.395 10.761-1.277 2.288-2.777 3.078-5.371 4.769-4.449 2.893-8.773 5.867-12.986 9.102 10.773-15.955 17.722-33.809 26.21-50.989 10.917-22.088 15.913-46.877 25.096-69.7 1.781-4.426 3.951-9.297 6.94-13.065.909-1.146 3.782-2.863 4.033-4.308.663-3.812-1.919-2.788-3.814-1.692-4.645 2.685-9.155 8.741-12.329 12.824-4.62 5.938-9.298 12.38-13.3 18.777-13.785 22.035-22.925 47.04-30.516 71.789-3.572 11.634-7.256 23.46-9.014 35.525-.847 5.826.116 5.982-4.751 9.969-5.083 4.166-9.941 8.585-14.984 12.792 4.596-9.437 7.335-21.14 10.651-31.151 3.473-10.488 7.422-20.818 10.951-31.291 5.74-17.041 10.035-34.488 14.168-51.972a851.556 851.556 0 0 0 6.133-27.96c2.418-12.03 4.877-25.92 10.269-37.018.804-1.65 4.072-9.318-.656-6.677-2.166 1.207-4.733 9.11-5.839 11.24-6.264 12.099-11.541 24.384-16.255 37.16-8.357 22.654-14.222 45.87-20.843 69.036-3.31-4.52-10.183-9.495-16.122-7.571-5.334 1.728-7.958 9.322-9.636 14.078-.187-3.291-4.224-9.429-7.371-9.639-1.789-.119-4.871 1.575-6.367 2.283-3.698 1.748-7.898 3.959-10.204 7.4-4.726 7.059-3.83 18.137-4.67 26.307-2.5 24.363-2.052 47.888.702 72.151.63 5.553 1.39 8.128-1.77 12.504-3.607 5.001-7.086 9.917-10.638 14.611 1.141-2.175.11-8.819.096-11.138-.036-6.209.027-12.367.35-18.572.661-12.779-.025-25.988-.669-38.776-1.325-26.347-1.205-52.36-.316-78.7.186-5.551.06-11.068.027-16.615-.015-2.29.743-7.902-2.895-6.56-1.056.389-1.833 4.485-2.14 5.524-2.834 9.578-3.724 19.938-5.021 29.774-1.18 8.947-2.257 17.907-3.004 26.897-1.436 17.271-.962 34.042-.875 51.342.074 14.251 1.619 29.744 4.253 42.891 1.236 6.166 3.383 12.829 4.008 19.043.38 3.742-1.81 5.129-4.325 8.526-2.545 3.437-5.058 6.899-7.487 10.418.234-5.392-1.303-10.967-1.663-16.363-.303-4.507-.59-8.993-.995-13.496-.323-3.546-.627-7.095-.941-10.645-1.62-18.268-3.201-36.497-6.19-54.597-4.596-27.796-9.608-56.362-9.422-84.64.036-5.396.21-10.79.273-16.188.046-4.068-.328-8.105-.352-12.167-.012-2.072.932-6.08.24-8.144-1.999-5.974-3.73.701-3.786 3.445-.029 1.445-.115 2.887-.137 4.332-.134 9.079-.915 18.033-1.364 27.102-.643 13.077-.068 26.088.366 39.157.474 14.238.118 28.572 1.648 42.757 1.974 18.284 5.927 36.461 8.408 54.696 1.08 7.942 2.585 15.795 3.402 23.774.762 7.456 3.409 14.786 5.02 21.674l-.008-.528c.624 2.928 1.604 4.392.715 7.078-.628 1.888-2.349 3.872-3.38 5.606-2.197 3.688-4.307 7.418-6.418 11.156 1.87-9.488-.665-21.458-2.672-30.778-2.219-10.313-4.922-20.875-8.087-30.932-2.461-7.821-4.498-15.508-5.241-23.649-.99-10.843-3.939-21.269-5.524-32.011-1.496-10.141-4.015-20.184-6.161-30.223-.484-2.26-2.642-13.07-6.154-8.194-.866 1.204.196 4.399.332 5.642.334 3.08.542 6.111.68 9.203.896 19.631 5.008 39.56 8.23 58.901 2.06 12.359 4.24 24.761 7.249 36.924 2.343 9.47 3.609 19.31 6.208 28.647 1.247 4.478 2.513 9.057 4.506 13.262 1.733 3.659 3.48 4.682 2.87 8.625-.876 5.639-5.677 11.492-7.843 16.95-1.772 4.464-3.578 8.934-5.266 13.428a446.268 446.268 0 0 0-6.637 19.097c-1.201 3.704-3.53 8.485-3.748 12.252-.333 5.722 2.906 4.086 4.607.258 1.144-2.576 2.057-5.346 3.134-7.966 7.895-19.19 15.125-39.766 26.915-56.986 4.917-7.191 18.512-8.923 26.488-11.43 19.188-6.039 39.945-6.836 59.854-9.042 16.053-1.777 31.847-3.41 47.563-7.359 2.296-.574 44.189-12.909 43.138-15.06.587 1.207-45.832 11.538-49.549 11.842-11.658.95-23.278 1.205-34.961 1.699-29.222 1.237-57.965 1.939-84.518 15.747 3.351-5.27 7.36-15.219 13.24-17.259 11.337-3.938 23.284-6.482 34.704-10.322 11.872-3.985 24.063-6.656 36.005-10.349 11.928-3.691 23.83-7.513 35.939-10.617 12.172-3.118 24.746-6.369 37.394-5.968 4.868.155 9.75.587 14.597 1.045 1.831.173 16.402 2.866 8.523-.48-5.102-2.169-11.782-2.336-17.248-3.132-6.268-.909-12.276-1.717-18.611-1.668-13.793.107-27.65 3.341-40.983 6.541-15.958 3.827-32.569 7.625-47.802 13.784-13.96 5.646-27.992 11.066-41.953 16.641 2.538-3.886 5.238-7.656 7.88-11.473 1.282-1.856 2.636-4.87 4.457-6.137 2.78-1.937 8.63-2.44 11.858-3.516 12.99-4.319 26.04-9.392 39.351-12.605 21.403-5.167 43.314-8.373 64.85-12.971 12.569-2.682 25.878-5.048 38.729-4.819 4.834.088 9.674-.088 14.421.933 1.679.359 3.793 1.289 5.522 1.485 5.175.58 1.336-1.908-1.803-2.996-24.879-8.614-52.302-1.728-77.38 1.777-16.586 2.316-32.959 4.677-48.795 10.383-14.591 5.255-28.54 12.264-43.374 16.878 3.888-5.524 7.354-11.246 13.566-14.285 6.874-3.361 14.119-4.823 21.621-6.098 15.597-2.657 31.09-6.059 46.737-8.374 14.375-2.123 28.723-4.008 42.972-6.906 13.873-2.826 27.665-4.477 40.907-9.817 4.192-1.691 9.275-4.622 13.751-4.878 5.802-.33 12.827 1.408 18.516 2.269 13.856 2.095 28.239 4.255 41.048 10.12 12.568 5.756 21.102 14.802 30.723 24.259 3.031 2.984 6.013 6.018 9.036 9.01.673.668 4.69 5.676 5.518 5.739 5.124.384-4.542-9.772-6.21-11.853-11.527-14.381-24.001-26.374-40.959-34.209-14.452-6.679-29.561-11.022-45.321-13.246.04-2.849 11.651-2.99 11.969-5.941.422-3.936-7.703.002-9.313.487-3.058.917-6.032 2.066-9.105 2.935-7.056 1.994-14.862-.462-22.029-1.382-8.642-1.105-17.398-1.829-26.089-2.352-28.77-1.735-56.374-.78-84.318 6.929 5.014-4.392 10.245-8.567 15.545-12.608 2.064-1.573 3.637-3.014 5.975-3.752 3.948-1.248 8.636-.69 12.752-1.094 16.272-1.586 32.47-3.37 48.832-3.872 26.926-.827 55.001 4.006 80.536 12.566 12.458 4.178 24.68 8.241 35.497 15.932 2.505 1.777 4.732 3.818 7.008 5.873.941.849 6.685 7.026 6.977 6.994 2.492-.266-9.062-13.051-10.741-14.684-22.561-21.929-51.836-26.915-81.729-31.318-31.26-4.605-62.637-2.159-93.433 4.789 6.15-3.837 12.194-10.412 19.097-12.644 5.244-1.696 11.9-1.374 17.207-1.917 15.387-1.583 31.516 1.104 46.938 2.196 17.421 1.233 34.344 3.467 51.187 8.108 8.618 2.375 17.01 4.889 25.419 7.973 6.664 2.444 12.101 3.949 17.492 8.415 2.175 1.818 8.646 6.645 12.147 9.928 1.428 1.341 2.907 4.173 4.521 4.846 6.012 2.508-1.967-7.287-3.277-8.988 4.779 2.856 9.24 6.161 13.483 9.681.839.699 1.642 1.231 2.492 1.868.997.751 1.52 2.942 3.228 2.212 1.391-.598.897-2.031.233-2.937Z" 
fill="#012A32"/>
</svg>